# xmcd
#
# Track frame offsets: 
#        150
#        7350
#        24675
#        33900
#        43987
#        64387
#        75787
#        85312
#        103462
#        111337
#        122287
#        139162
#        151987
#        165112
#
# Disc length: 2280 seconds
#
# Revision: 2
# Processed by: cddbd v1.5.2PL0 Copyright (c) Steve Scherf et al.
# Submitted via: ExactAudioCopy v1.0b3
#
DISCID=b308e60e
DTITLE=Eilen Jewell - Queen of the Minor Key
DYEAR=2011
DGENRE=Country
TTITLE0=Radio City
TTITLE1=I Remember You
TTITLE2=Queen of the Minor Key
TTITLE3=That's Where I'm Going
TTITLE4=Santa Fe
TTITLE5=Warning Signs
TTITLE6=Reckless
TTITLE7=Over Again
TTITLE8=Bang Bang Bang
TTITLE9=Hooked
TTITLE10=Only One
TTITLE11=Long Road
TTITLE12=Home to Me
TTITLE13=Kalimotxo
EXTD=
EXTT0=
EXTT1=
EXTT2=
EXTT3=
EXTT4=
EXTT5=
EXTT6=
EXTT7=
EXTT8=
EXTT9=
EXTT10=
EXTT11=
EXTT12=
EXTT13=
PLAYORDER=
